<svg width="25" height="24" viewBox="0 0 25 24" fill="none" xmlns="http://www.w3.org/2000/svg">
<path fill-rule="evenodd" clip-rule="evenodd" d="M10.625 6.99234L14.1527 4.98032C15.105 4.43716 16.3171 4.76192 16.8703 5.70846L17.625 6.99985L10.625 6.99234Z" stroke="white" stroke-width="1.5" stroke-linejoin="round"/>
<path d="M4.625 7.81235C4.625 7.36361 4.98317 6.99985 5.425 6.99985H19.825C20.2668 6.99985 20.625 7.36361 20.625 7.81235V19.1874C20.625 19.6361 20.2668 19.9999 19.825 19.9999H5.425C4.98317 19.9999 4.625 19.6361 4.625 19.1874V7.81235Z" stroke="white" stroke-width="1.5" stroke-linejoin="round"/>
<path d="M16.875 15.9999H20.625V11.9999H16.875C15.6324 11.9999 14.625 12.8953 14.625 13.9999C14.625 15.1044 15.6324 15.9999 16.875 15.9999Z" stroke="white" stroke-width="1.5" stroke-linejoin="round"/>
</svg>
