<svg width="25" height="24" viewBox="0 0 25 24" fill="none" xmlns="http://www.w3.org/2000/svg">
<g clip-path="url(#clip0_9618_18517)">
<path d="M12.875 11C15.0841 11 16.875 9.20914 16.875 7C16.875 4.79086 15.0841 3 12.875 3C10.6659 3 8.875 4.79086 8.875 7C8.875 9.20914 10.6659 11 12.875 11Z" stroke="white" stroke-width="1.5" stroke-linecap="round" stroke-linejoin="round"/>
<path d="M6.875 21V19C6.875 17.9391 7.29643 16.9217 8.04657 16.1716C8.79672 15.4214 9.81413 15 10.875 15H14.875C15.9359 15 16.9533 15.4214 17.7034 16.1716C18.4536 16.9217 18.875 17.9391 18.875 19V21" stroke="white" stroke-width="1.5" stroke-linecap="round" stroke-linejoin="round"/>
</g>
<defs>
<clipPath id="clip0_9618_18517">
<rect width="24" height="24" fill="white" transform="translate(0.875)"/>
</clipPath>
</defs>
</svg>
