<svg width="25" height="24" viewBox="0 0 25 24" fill="none" xmlns="http://www.w3.org/2000/svg">
<path d="M9.94453 12.46L6.89453 15.51" stroke="white" stroke-width="1.5" stroke-miterlimit="10" stroke-linecap="round" stroke-linejoin="round"/>
<path d="M6.9248 12.4902L9.9748 15.5402" stroke="white" stroke-width="1.5" stroke-miterlimit="10" stroke-linecap="round" stroke-linejoin="round"/>
<path d="M13.9053 14H13.9153" stroke="white" stroke-width="2" stroke-miterlimit="10" stroke-linecap="round" stroke-linejoin="round"/>
<path d="M17.8447 14H17.8547" stroke="white" stroke-width="2" stroke-miterlimit="10" stroke-linecap="round" stroke-linejoin="round"/>
<path d="M15.875 15.98V15.96" stroke="white" stroke-width="2" stroke-miterlimit="10" stroke-linecap="round" stroke-linejoin="round"/>
<path d="M15.875 12.04V12.02" stroke="white" stroke-width="2" stroke-miterlimit="10" stroke-linecap="round" stroke-linejoin="round"/>
<path d="M9.375 22H15.375C20.375 22 22.375 20 22.375 15V13C22.375 8 20.375 6 15.375 6H9.375C4.375 6 2.375 8 2.375 13V15C2.375 20 4.375 22 9.375 22Z" stroke="white" stroke-width="1.5" stroke-linecap="round" stroke-linejoin="round"/>
<path d="M13.3855 2L13.3755 3.01C13.3655 3.56 12.9255 4 12.3755 4H12.3455C11.7955 4 11.3555 4.45 11.3555 5C11.3555 5.55 11.8055 6 12.3555 6H13.3555" stroke="white" stroke-width="1.5" stroke-linecap="round" stroke-linejoin="round"/>
</svg>
