<svg width="25" height="24" viewBox="0 0 25 24" fill="none" xmlns="http://www.w3.org/2000/svg">
<path d="M9.45801 5H7.45801C6.92757 5 6.41887 5.21071 6.04379 5.58579C5.66872 5.96086 5.45801 6.46957 5.45801 7V19C5.45801 19.5304 5.66872 20.0391 6.04379 20.4142C6.41887 20.7893 6.92757 21 7.45801 21H17.458C17.9884 21 18.4971 20.7893 18.8722 20.4142C19.2473 20.0391 19.458 19.5304 19.458 19V7C19.458 6.46957 19.2473 5.96086 18.8722 5.58579C18.4971 5.21071 17.9884 5 17.458 5H15.458M9.45801 5C9.45801 4.46957 9.66872 3.96086 10.0438 3.58579C10.4189 3.21071 10.9276 3 11.458 3H13.458C13.9884 3 14.4971 3.21071 14.8722 3.58579C15.2473 3.96086 15.458 4.46957 15.458 5M9.45801 5C9.45801 5.53043 9.66872 6.03914 10.0438 6.41421C10.4189 6.78929 10.9276 7 11.458 7H13.458C13.9884 7 14.4971 6.78929 14.8722 6.41421C15.2473 6.03914 15.458 5.53043 15.458 5M9.45801 12H15.458M9.45801 16H15.458" stroke="white" stroke-width="1.5" stroke-linecap="round" stroke-linejoin="round"/>
</svg>
