<svg width="40" height="34" viewBox="0 0 40 34" fill="none" xmlns="http://www.w3.org/2000/svg">
<path d="M2.74939 14.2714C13.4888 9.59349 20.6485 6.50921 24.2283 5.01915C34.4612 0.764238 36.585 0.0252538 37.972 0.00021814C38.277 -0.00467389 38.9562 0.0707203 39.3993 0.428989C39.7677 0.731144 39.8713 1.13977 39.923 1.42668C39.9691 1.71329 40.0324 2.36652 39.9806 2.87644C39.4281 8.70084 37.0281 22.8348 35.808 29.3584C35.2958 32.1187 34.2771 33.0441 33.2929 33.1345C31.1519 33.3313 29.5289 31.721 27.457 30.3633C24.2168 28.2379 22.3866 26.9153 19.2384 24.8417C15.601 22.4451 17.9607 21.1277 20.0326 18.9752C20.5736 18.4118 30.0009 9.83924 30.1793 9.06169C30.2023 8.96443 30.2253 8.60184 30.0066 8.41076C29.7937 8.21911 29.4771 8.28472 29.2469 8.33652C28.9189 8.41019 23.7448 11.8335 13.7075 18.6058C12.2399 19.6152 10.9104 20.1073 9.71334 20.0814C8.40112 20.0532 5.86878 19.3378 3.98679 18.7266C1.68466 17.9767 -0.151294 17.5802 0.00985549 16.3065C0.0904301 15.6435 1.00553 14.9649 2.74939 14.2714Z" fill="#2AABEE"/>
</svg>
