<svg width="23" height="20" viewBox="0 0 23 20" fill="none" xmlns="http://www.w3.org/2000/svg">
<path d="M22.706 2.96003C21.871 3.33003 20.974 3.58003 20.031 3.69303C21.004 3.11082 21.7319 2.19449 22.079 1.11503C21.1648 1.65802 20.1643 2.04022 19.121 2.24503C18.4194 1.49589 17.4901 0.999352 16.4773 0.8325C15.4646 0.665648 14.4251 0.837818 13.5202 1.32228C12.6154 1.80674 11.8958 2.57639 11.4732 3.51173C11.0505 4.44707 10.9485 5.49578 11.183 6.49503C9.33069 6.40202 7.51863 5.92058 5.86442 5.08193C4.21022 4.24329 2.75084 3.06619 1.581 1.62703C1.181 2.31703 0.951 3.11703 0.951 3.96903C0.950554 4.73602 1.13943 5.49127 1.50088 6.16776C1.86232 6.84425 2.38516 7.42106 3.023 7.84703C2.28328 7.82349 1.55987 7.62361 0.913 7.26403V7.32403C0.912925 8.39977 1.28503 9.4424 1.96618 10.275C2.64733 11.1076 3.59557 11.679 4.65 11.892C3.96378 12.0777 3.24434 12.1051 2.546 11.972C2.8435 12.8976 3.423 13.7071 4.20337 14.287C4.98374 14.8669 5.92592 15.1882 6.898 15.206C5.24783 16.5014 3.20989 17.2041 1.112 17.201C0.740381 17.2011 0.369076 17.1794 0 17.136C2.12948 18.5052 4.60834 19.2318 7.14 19.229C15.71 19.229 20.395 12.131 20.395 5.97503C20.395 5.77503 20.39 5.57303 20.381 5.37303C21.2923 4.714 22.0789 3.89792 22.704 2.96303L22.706 2.96003Z" fill="#1DA1F2"/>
</svg>
